<mxfile host="app.diagrams.net" modified="2022-03-17T02:02:26.150Z" agent="5.0 (Macintosh; Intel Mac OS X 10_15_7) AppleWebKit/537.36 (KHTML, like Gecko) Chrome/99.0.4844.51 Safari/537.36" etag="J0h7yppOBQ42t_X_0zWJ" version="17.1.2" type="github">
  <diagram id="zZ_TgJNbVvpxCx87fyp5" name="Page-1">
    <mxGraphModel dx="1232" dy="809" grid="1" gridSize="10" guides="1" tooltips="1" connect="1" arrows="1" fold="1" page="1" pageScale="1" pageWidth="827" pageHeight="1169" math="0" shadow="0">
      <root>
        <mxCell id="0" />
        <mxCell id="1" parent="0" />
        <mxCell id="84mTH-gXEzK-3RzK_8ae-25" style="edgeStyle=orthogonalEdgeStyle;rounded=0;orthogonalLoop=1;jettySize=auto;html=1;exitX=0;exitY=0.75;exitDx=0;exitDy=0;fontSize=12;" parent="1" source="84mTH-gXEzK-3RzK_8ae-14" target="84mTH-gXEzK-3RzK_8ae-21" edge="1">
          <mxGeometry relative="1" as="geometry" />
        </mxCell>
        <mxCell id="84mTH-gXEzK-3RzK_8ae-27" value="NON" style="edgeLabel;html=1;align=center;verticalAlign=middle;resizable=0;points=[];fontSize=12;" parent="84mTH-gXEzK-3RzK_8ae-25" vertex="1" connectable="0">
          <mxGeometry x="0.0643" y="-1" relative="1" as="geometry">
            <mxPoint as="offset" />
          </mxGeometry>
        </mxCell>
        <mxCell id="0J5WLrTJx40tkv2BNEWx-3" value="&lt;font color=&quot;#ff0000&quot;&gt;FK&lt;/font&gt;" style="edgeLabel;html=1;align=center;verticalAlign=middle;resizable=0;points=[];" parent="84mTH-gXEzK-3RzK_8ae-25" vertex="1" connectable="0">
          <mxGeometry x="-0.4301" y="-1" relative="1" as="geometry">
            <mxPoint as="offset" />
          </mxGeometry>
        </mxCell>
        <mxCell id="84mTH-gXEzK-3RzK_8ae-29" style="edgeStyle=orthogonalEdgeStyle;rounded=0;orthogonalLoop=1;jettySize=auto;html=1;exitX=0.5;exitY=1;exitDx=0;exitDy=0;entryX=0.25;entryY=0;entryDx=0;entryDy=0;fontSize=12;" parent="1" source="84mTH-gXEzK-3RzK_8ae-14" target="84mTH-gXEzK-3RzK_8ae-28" edge="1">
          <mxGeometry relative="1" as="geometry" />
        </mxCell>
        <mxCell id="84mTH-gXEzK-3RzK_8ae-30" value="DPA" style="edgeLabel;html=1;align=center;verticalAlign=middle;resizable=0;points=[];fontSize=12;" parent="84mTH-gXEzK-3RzK_8ae-29" vertex="1" connectable="0">
          <mxGeometry x="-0.3462" y="2" relative="1" as="geometry">
            <mxPoint as="offset" />
          </mxGeometry>
        </mxCell>
        <mxCell id="0J5WLrTJx40tkv2BNEWx-5" value="&lt;font color=&quot;#ff0000&quot;&gt;FK&lt;/font&gt;" style="edgeLabel;html=1;align=center;verticalAlign=middle;resizable=0;points=[];" parent="84mTH-gXEzK-3RzK_8ae-29" vertex="1" connectable="0">
          <mxGeometry x="0.3665" y="1" relative="1" as="geometry">
            <mxPoint as="offset" />
          </mxGeometry>
        </mxCell>
        <mxCell id="0J5WLrTJx40tkv2BNEWx-2" value="&lt;font color=&quot;#ff0000&quot;&gt;FK&lt;/font&gt;" style="edgeStyle=orthogonalEdgeStyle;rounded=0;orthogonalLoop=1;jettySize=auto;html=1;exitX=0.25;exitY=0;exitDx=0;exitDy=0;entryX=1;entryY=0.5;entryDx=0;entryDy=0;" parent="1" source="84mTH-gXEzK-3RzK_8ae-14" target="84mTH-gXEzK-3RzK_8ae-39" edge="1">
          <mxGeometry relative="1" as="geometry" />
        </mxCell>
        <mxCell id="iV9EC9qwNgEAkCrWaYej-3" style="edgeStyle=orthogonalEdgeStyle;rounded=0;orthogonalLoop=1;jettySize=auto;html=1;exitX=1;exitY=0.5;exitDx=0;exitDy=0;entryX=0;entryY=0.5;entryDx=0;entryDy=0;" edge="1" parent="1" source="84mTH-gXEzK-3RzK_8ae-14" target="cHhtbCE1MpWlHDYDx5-o-1">
          <mxGeometry relative="1" as="geometry" />
        </mxCell>
        <mxCell id="iV9EC9qwNgEAkCrWaYej-5" style="edgeStyle=orthogonalEdgeStyle;rounded=0;orthogonalLoop=1;jettySize=auto;html=1;exitX=1;exitY=0.75;exitDx=0;exitDy=0;entryX=0.75;entryY=0;entryDx=0;entryDy=0;fontColor=#FF0000;" edge="1" parent="1" source="84mTH-gXEzK-3RzK_8ae-14" target="84mTH-gXEzK-3RzK_8ae-28">
          <mxGeometry relative="1" as="geometry" />
        </mxCell>
        <mxCell id="iV9EC9qwNgEAkCrWaYej-6" value="&lt;font color=&quot;#000033&quot;&gt;NON-Yes&lt;/font&gt;" style="edgeLabel;html=1;align=center;verticalAlign=middle;resizable=0;points=[];fontColor=#FF0000;" vertex="1" connectable="0" parent="iV9EC9qwNgEAkCrWaYej-5">
          <mxGeometry x="0.1506" y="2" relative="1" as="geometry">
            <mxPoint y="1" as="offset" />
          </mxGeometry>
        </mxCell>
        <mxCell id="iV9EC9qwNgEAkCrWaYej-11" style="edgeStyle=orthogonalEdgeStyle;rounded=0;orthogonalLoop=1;jettySize=auto;html=1;exitX=0.25;exitY=1;exitDx=0;exitDy=0;entryX=0.25;entryY=0;entryDx=0;entryDy=0;fontColor=#000033;" edge="1" parent="1" source="84mTH-gXEzK-3RzK_8ae-14" target="iV9EC9qwNgEAkCrWaYej-1">
          <mxGeometry relative="1" as="geometry" />
        </mxCell>
        <mxCell id="iV9EC9qwNgEAkCrWaYej-13" value="FK" style="edgeLabel;html=1;align=center;verticalAlign=middle;resizable=0;points=[];fontColor=#000033;" vertex="1" connectable="0" parent="iV9EC9qwNgEAkCrWaYej-11">
          <mxGeometry x="-0.1867" y="2" relative="1" as="geometry">
            <mxPoint as="offset" />
          </mxGeometry>
        </mxCell>
        <mxCell id="84mTH-gXEzK-3RzK_8ae-14" value="&lt;p style=&quot;background-color: rgb(255 , 255 , 255) ; color: rgb(51 , 51 , 51)&quot;&gt;&lt;span style=&quot;color: rgb(0 , 0 , 192)&quot;&gt;&lt;font style=&quot;font-size: 12px&quot;&gt;XPASS_ENTTL_RSN&lt;/font&gt;&lt;/span&gt;&lt;/p&gt;" style="html=1;" parent="1" vertex="1">
          <mxGeometry x="290" y="120" width="210" height="50" as="geometry" />
        </mxCell>
        <mxCell id="84mTH-gXEzK-3RzK_8ae-17" value="&lt;pre style=&quot;background-color: rgb(255 , 255 , 255) ; color: rgb(51 , 51 , 51)&quot;&gt;&lt;span style=&quot;color: rgb(0 , 0 , 192) ; font-weight: bold&quot;&gt;&lt;font style=&quot;font-size: 12px&quot;&gt;NON_STD_ENTTL_ENTRTN_CONFIG&lt;/font&gt;&lt;/span&gt;&lt;/pre&gt;" style="html=1;" parent="1" vertex="1">
          <mxGeometry x="62" y="440" width="200" height="50" as="geometry" />
        </mxCell>
        <mxCell id="84mTH-gXEzK-3RzK_8ae-26" style="edgeStyle=orthogonalEdgeStyle;rounded=0;orthogonalLoop=1;jettySize=auto;html=1;exitX=0.5;exitY=1;exitDx=0;exitDy=0;fontSize=12;" parent="1" source="84mTH-gXEzK-3RzK_8ae-21" target="84mTH-gXEzK-3RzK_8ae-17" edge="1">
          <mxGeometry relative="1" as="geometry" />
        </mxCell>
        <mxCell id="0J5WLrTJx40tkv2BNEWx-4" value="&lt;font color=&quot;#ff0000&quot;&gt;FK&lt;/font&gt;" style="edgeLabel;html=1;align=center;verticalAlign=middle;resizable=0;points=[];" parent="84mTH-gXEzK-3RzK_8ae-26" vertex="1" connectable="0">
          <mxGeometry x="-0.0444" y="2" relative="1" as="geometry">
            <mxPoint as="offset" />
          </mxGeometry>
        </mxCell>
        <mxCell id="84mTH-gXEzK-3RzK_8ae-21" value="&lt;pre style=&quot;background-color: rgb(255 , 255 , 255) ; color: rgb(51 , 51 , 51)&quot;&gt;&lt;p class=&quot;p1&quot; style=&quot;margin: 0px ; font-stretch: normal ; line-height: normal ; font-family: &amp;#34;menlo&amp;#34; ; color: rgb(0 , 0 , 0)&quot;&gt;non_std_non_inv_enttl_cnfig&lt;/p&gt;&lt;/pre&gt;" style="html=1;" parent="1" vertex="1">
          <mxGeometry x="62" y="300" width="200" height="50" as="geometry" />
        </mxCell>
        <mxCell id="84mTH-gXEzK-3RzK_8ae-28" value="&lt;pre style=&quot;background-color: rgb(255 , 255 , 255) ; color: rgb(51 , 51 , 51)&quot;&gt;&lt;p class=&quot;p1&quot; style=&quot;margin: 0px ; font-stretch: normal ; line-height: normal ; font-family: &amp;#34;menlo&amp;#34; ; color: rgb(0 , 0 , 0)&quot;&gt;shdr_product_mapping&lt;/p&gt;&lt;/pre&gt;" style="html=1;" parent="1" vertex="1">
          <mxGeometry x="410" y="300" width="200" height="50" as="geometry" />
        </mxCell>
        <mxCell id="cHhtbCE1MpWlHDYDx5-o-5" style="edgeStyle=orthogonalEdgeStyle;rounded=0;orthogonalLoop=1;jettySize=auto;html=1;exitX=0;exitY=0.5;exitDx=0;exitDy=0;entryX=0.75;entryY=0;entryDx=0;entryDy=0;" parent="1" source="84mTH-gXEzK-3RzK_8ae-33" target="84mTH-gXEzK-3RzK_8ae-14" edge="1">
          <mxGeometry relative="1" as="geometry" />
        </mxCell>
        <mxCell id="84mTH-gXEzK-3RzK_8ae-33" value="&lt;pre style=&quot;background-color: rgb(255 , 255 , 255) ; color: rgb(51 , 51 , 51)&quot;&gt;&lt;p class=&quot;p1&quot; style=&quot;margin: 0px ; font-stretch: normal ; line-height: normal ; font-family: &amp;#34;menlo&amp;#34; ; color: rgb(0 , 0 , 0)&quot;&gt;gxp_access_code&lt;/p&gt;&lt;/pre&gt;" style="html=1;" parent="1" vertex="1">
          <mxGeometry x="560" y="30" width="200" height="50" as="geometry" />
        </mxCell>
        <mxCell id="84mTH-gXEzK-3RzK_8ae-36" value="&lt;h1&gt;reason_code&lt;/h1&gt;&lt;p&gt;NON只有新增/修改,无删除&lt;/p&gt;&lt;p&gt;NON-yes新增/修改,无删除&lt;br&gt;&lt;/p&gt;&lt;p&gt;DPA(timebase/ent/allday)新增/修改/删除时,涉及reason_code删除&lt;/p&gt;&lt;p&gt;ACCESS_CODE新增/删除时,涉及reason_code&lt;/p&gt;&lt;p&gt;&lt;br&gt;&lt;/p&gt;" style="text;html=1;strokeColor=none;fillColor=none;spacing=5;spacingTop=-20;whiteSpace=wrap;overflow=hidden;rounded=0;fontSize=12;" parent="1" vertex="1">
          <mxGeometry x="515" y="510" width="290" height="210" as="geometry" />
        </mxCell>
        <mxCell id="84mTH-gXEzK-3RzK_8ae-39" value="&lt;pre style=&quot;background-color: rgb(255 , 255 , 255) ; color: rgb(51 , 51 , 51)&quot;&gt;&lt;p class=&quot;p1&quot; style=&quot;margin: 0px ; font-stretch: normal ; font-size: 17px ; line-height: normal ; font-family: &amp;#34;menlo&amp;#34; ; color: rgb(0 , 0 , 0)&quot;&gt;dpa_settings&lt;/p&gt;&lt;/pre&gt;" style="html=1;" parent="1" vertex="1">
          <mxGeometry x="80" y="20" width="200" height="50" as="geometry" />
        </mxCell>
        <mxCell id="cHhtbCE1MpWlHDYDx5-o-1" value="&lt;pre style=&quot;background-color: rgb(255 , 255 , 255) ; color: rgb(51 , 51 , 51)&quot;&gt;&lt;pre style=&quot;font-family: , monospace ; font-size: 13.5pt&quot;&gt;&lt;span style=&quot;color: #0000c0 ; font-weight: bold&quot;&gt;tb_rsn_bk_config&lt;/span&gt;&lt;/pre&gt;&lt;/pre&gt;" style="html=1;" parent="1" vertex="1">
          <mxGeometry x="600" y="120" width="200" height="50" as="geometry" />
        </mxCell>
        <mxCell id="iV9EC9qwNgEAkCrWaYej-10" style="edgeStyle=orthogonalEdgeStyle;rounded=0;orthogonalLoop=1;jettySize=auto;html=1;exitX=0.5;exitY=1;exitDx=0;exitDy=0;entryX=0.5;entryY=0;entryDx=0;entryDy=0;fontColor=#000033;" edge="1" parent="1" source="iV9EC9qwNgEAkCrWaYej-1" target="iV9EC9qwNgEAkCrWaYej-7">
          <mxGeometry relative="1" as="geometry" />
        </mxCell>
        <mxCell id="iV9EC9qwNgEAkCrWaYej-14" value="FK" style="edgeLabel;html=1;align=center;verticalAlign=middle;resizable=0;points=[];fontColor=#000033;" vertex="1" connectable="0" parent="iV9EC9qwNgEAkCrWaYej-10">
          <mxGeometry x="0.0072" y="1" relative="1" as="geometry">
            <mxPoint as="offset" />
          </mxGeometry>
        </mxCell>
        <mxCell id="iV9EC9qwNgEAkCrWaYej-1" value="&lt;pre style=&quot;background-color: rgb(255 , 255 , 255) ; color: rgb(51 , 51 , 51)&quot;&gt;&lt;p class=&quot;p1&quot; style=&quot;margin: 0px ; font-stretch: normal ; line-height: normal ; font-family: &amp;#34;menlo&amp;#34; ; color: rgb(0 , 0 , 0)&quot;&gt;xpass_enttl_actvy_rsn&lt;/p&gt;&lt;/pre&gt;" style="html=1;" vertex="1" parent="1">
          <mxGeometry x="292" y="440" width="200" height="50" as="geometry" />
        </mxCell>
        <mxCell id="iV9EC9qwNgEAkCrWaYej-7" value="&lt;pre style=&quot;background-color: rgb(255 , 255 , 255) ; color: rgb(51 , 51 , 51)&quot;&gt;&lt;p class=&quot;p1&quot; style=&quot;margin: 0px ; font-stretch: normal ; line-height: normal ; font-family: &amp;#34;menlo&amp;#34; ; color: rgb(0 , 0 , 0)&quot;&gt;xpass_enttl_actvy&lt;/p&gt;&lt;/pre&gt;" style="html=1;" vertex="1" parent="1">
          <mxGeometry x="292" y="559.5" width="200" height="50" as="geometry" />
        </mxCell>
        <mxCell id="iV9EC9qwNgEAkCrWaYej-12" style="edgeStyle=orthogonalEdgeStyle;rounded=0;orthogonalLoop=1;jettySize=auto;html=1;exitX=0.5;exitY=0;exitDx=0;exitDy=0;fontColor=#000033;" edge="1" parent="1" source="iV9EC9qwNgEAkCrWaYej-8" target="iV9EC9qwNgEAkCrWaYej-7">
          <mxGeometry relative="1" as="geometry" />
        </mxCell>
        <mxCell id="iV9EC9qwNgEAkCrWaYej-15" value="FK" style="edgeLabel;html=1;align=center;verticalAlign=middle;resizable=0;points=[];fontColor=#000033;" vertex="1" connectable="0" parent="iV9EC9qwNgEAkCrWaYej-12">
          <mxGeometry x="-0.1278" y="-1" relative="1" as="geometry">
            <mxPoint as="offset" />
          </mxGeometry>
        </mxCell>
        <mxCell id="iV9EC9qwNgEAkCrWaYej-8" value="&lt;pre style=&quot;background-color: rgb(255 , 255 , 255) ; color: rgb(51 , 51 , 51)&quot;&gt;&lt;pre style=&quot;font-family: , monospace ; font-size: 13.5pt&quot;&gt;&lt;span style=&quot;color: #0000c0 ; font-weight: bold&quot;&gt;xpass_enttl&lt;/span&gt;&lt;/pre&gt;&lt;/pre&gt;" style="html=1;" vertex="1" parent="1">
          <mxGeometry x="292" y="676" width="200" height="50" as="geometry" />
        </mxCell>
      </root>
    </mxGraphModel>
  </diagram>
</mxfile>
